<?xml version="1.0" encoding="iso-8859-1"?>
<!-- Generator: Adobe Illustrator 16.0.0, SVG Export Plug-In . SVG Version: 6.00 Build 0)  -->
<!DOCTYPE svg PUBLIC "-//W3C//DTD SVG 1.1//EN" "http://www.w3.org/Graphics/SVG/1.1/DTD/svg11.dtd">
<svg version="1.1" id="Capa_1" xmlns="http://www.w3.org/2000/svg" xmlns:xlink="http://www.w3.org/1999/xlink" x="0px" y="0px"
	 width="478.125px" height="478.125px" viewBox="0 0 478.125 478.125" style="enable-background:new 0 0 478.125 478.125;"
	 xml:space="preserve">
<g>
	<g>
		<polygon points="153,191.25 239.062,277.312 325.125,191.25 309.825,177.862 248.625,239.062 248.625,28.688 229.5,28.688 
			229.5,239.062 168.3,177.862 		"/>
		<path d="M382.5,124.312H267.75v19.125h103.275l84.149,133.875h-130.05v38.25c0,21.037-17.213,38.25-38.25,38.25H191.25
			c-21.038,0-38.25-17.213-38.25-38.25v-38.25H22.95l84.15-133.875h103.275v-19.125H95.625L0,277.312v9.562v162.562h478.125V286.875
			v-9.562L382.5,124.312z M459,430.312H19.125V296.438h114.75v28.688c0,26.775,21.038,47.812,47.812,47.812h114.75
			c26.775,0,47.812-21.037,47.812-47.812v-28.688H459V430.312z"/>
	</g>
</g>
<g>
</g>
<g>
</g>
<g>
</g>
<g>
</g>
<g>
</g>
<g>
</g>
<g>
</g>
<g>
</g>
<g>
</g>
<g>
</g>
<g>
</g>
<g>
</g>
<g>
</g>
<g>
</g>
<g>
</g>
</svg>
