<?xml version="1.0" ?><svg enable-background="new 0 0 64 64" id="Layer_1" version="1.1" viewBox="0 0 64 64" fill="#fff" xml:space="preserve" xmlns="http://www.w3.org/2000/svg" xmlns:xlink="http://www.w3.org/1999/xlink"><g><g><path d="M39.3,9c4.8,0,8.8,3.9,8.8,8.8v34.9c0,4.8-3.9,8.8-8.8,8.8H25.8c-4.8,0-8.8-3.9-8.8-8.8V17.8    C17,12.9,21,9,25.8,9H39.3 M39.3,6.5H25.8c-6.2,0-11.3,5-11.3,11.3v34.9c0,6.2,5,11.3,11.3,11.3h13.5c6.2,0,11.3-5,11.3-11.3V17.8    C50.6,11.5,45.6,6.5,39.3,6.5L39.3,6.5z" fill="#20293B"/></g><path d="M41.6,0L41.6,0c-1.2,0-2.3,1-2.3,2.3V9h4.5V2.3C43.8,1,42.8,0,41.6,0z" fill="#20293B"/><rect fill="none" height="10.1" stroke="#20293B" stroke-linejoin="round" stroke-miterlimit="10" stroke-width="1.5" width="20.3" x="22.4" y="20"/><circle cx="25.8" cy="38.1" fill="#20293B" r="2.3"/><circle cx="32.6" cy="38.1" fill="#20293B" r="2.3"/><circle cx="39.3" cy="38.1" fill="#20293B" r="2.3"/><circle cx="25.8" cy="46" fill="#20293B" r="2.3"/><circle cx="32.6" cy="46" fill="#20293B" r="2.3"/><circle cx="39.3" cy="46" fill="#20293B" r="2.3"/><circle cx="25.8" cy="53.9" fill="#20293B" r="2.3"/><circle cx="32.6" cy="53.9" fill="#20293B" r="2.3"/><circle cx="39.3" cy="53.9" fill="#20293B" r="2.3"/><line fill="#FFFFFF" stroke="#20293B" stroke-linecap="round" stroke-linejoin="round" stroke-miterlimit="10" stroke-width="1.5" x1="28.1" x2="37.1" y1="14.4" y2="14.4"/><path d="M14.2,26.8h0.6c0.5,0,0.8-0.4,0.8-0.8v-7.4c0-0.5-0.4-0.8-0.8-0.8h-0.6c-0.5,0-0.8,0.4-0.8,0.8V26   C13.4,26.4,13.8,26.8,14.2,26.8z" fill="#20293B"/></g></svg>