<?xml version="1.0" encoding="iso-8859-1"?>
<!-- Generator: Adobe Illustrator 18.1.1, SVG Export Plug-In . SVG Version: 6.00 Build 0)  -->
<svg version="1.1" id="Capa_1" xmlns="http://www.w3.org/2000/svg" xmlns:xlink="http://www.w3.org/1999/xlink" x="0px" y="0px"
	 viewBox="0 0 21.598 21.598" style="enable-background:new 0 0 21.598 21.598;" xml:space="preserve">
<g>
	<g>
		<g>
			<path style="fill:#010002;" d="M10.799,0c5.963,0,10.799,4.836,10.799,10.799s-4.836,10.799-10.799,10.799S0,16.762,0,10.799
				S4.836,0,10.799,0L10.799,0z M5.158,8.212c-0.2-4.287-2.308,1.481-4.005,2.16c-0.24,5.459,4.169,10.083,9.646,10.083
				c5.333,0,9.656-4.324,9.656-9.656c0-2.269-1.791-4.735-4.236-2.408c-0.941,0.895-2.271,1.616-2.474,0.164
				c-0.229-1.652-0.487-2.047-1.847-0.166c-3.582,4.957-1.115-4.167-3.918-0.454C6.798,9.416,5.273,10.684,5.158,8.212z"/>
			<path style="fill:#010002;" d="M16.391,15.1c-0.801,2.317-3.002,3.982-5.592,3.982S6.008,17.417,5.207,15.1H5.56
				c1.048,1.431,3.135,2.381,5.239,2.381s4.286-0.95,5.335-2.381H16.391z"/>
			<circle style="fill:#010002;" cx="7.293" cy="12.431" r="0.761"/>
			<circle style="fill:#010002;" cx="14.488" cy="12.431" r="0.761"/>
		</g>
	</g>
</g>
<g>
</g>
<g>
</g>
<g>
</g>
<g>
</g>
<g>
</g>
<g>
</g>
<g>
</g>
<g>
</g>
<g>
</g>
<g>
</g>
<g>
</g>
<g>
</g>
<g>
</g>
<g>
</g>
<g>
</g>
</svg>
