<?xml version="1.0" encoding="iso-8859-1"?>
<!-- Generator: Adobe Illustrator 18.1.1, SVG Export Plug-In . SVG Version: 6.00 Build 0)  -->
<svg version="1.1" id="Capa_1" xmlns="http://www.w3.org/2000/svg" xmlns:xlink="http://www.w3.org/1999/xlink" x="0px" y="0px"
	 viewBox="0 0 525.938 525.938" style="enable-background:new 0 0 525.938 525.938;" xml:space="preserve">
<g>
	<g>
		<path style="fill:#010002;" d="M508.605,17.332C497.051,5.777,482.908,0,466.172,0H59.766C43.032,0,28.887,5.777,17.332,17.332
			C5.777,28.887,0,43.031,0,59.766v406.406c0,16.731,5.777,30.879,17.332,42.434c11.555,11.558,25.699,17.332,42.434,17.332h406.406
			c16.734,0,30.879-5.774,42.434-17.332c11.559-11.555,17.332-25.699,17.332-42.434V59.766
			C525.938,43.032,520.162,28.887,508.605,17.332z M294.047,469.162c-8.367,8.365-18.428,12.551-30.182,12.551
			s-21.814-4.187-30.184-12.551c-8.368-8.367-12.551-18.431-12.551-30.185s4.184-21.812,12.551-30.182
			c8.368-8.368,18.43-12.551,30.184-12.551s21.813,4.184,30.182,12.551c8.371,8.367,12.551,18.428,12.551,30.182
			S302.414,460.793,294.047,469.162z M380.107,206.191c-8.363,14.345-23.902,31.677-46.613,51.996
			c-14.348,12.75-23.707,22.113-28.094,28.089c-3.98,5.183-6.77,11.355-8.363,18.527c-1.992,7.172-3.189,19.523-3.586,37.055v0.601
			c-0.398,10.356-3.984,18.328-10.762,23.904c-5.977,5.182-13.145,7.37-21.515,6.573c-7.969-0.797-14.941-3.785-20.918-8.965
			c-5.977-5.977-8.965-13.146-8.965-21.516v-14.346c0-18.728,2.789-35.263,8.367-49.604c3.984-10.758,10.359-21.516,19.125-32.273
			c6.375-7.569,17.73-18.526,34.066-32.871c15.143-13.147,24.703-23.508,28.688-31.077c3.982-6.773,5.977-14.344,5.977-22.711
			c0-15.141-5.977-28.588-17.93-40.342c-11.953-11.754-26.896-17.631-44.824-17.631c-17.132,0-31.276,5.379-42.434,16.137
			c-11.555,10.758-19.324,28.09-23.309,51.996c-1.195,9.96-5.479,18.029-12.85,24.205s-15.639,8.865-24.803,8.068
			c-9.562-0.398-16.934-4.185-22.113-11.355c-5.578-7.969-7.172-17.93-4.781-29.883c4.781-36.656,18.328-64.746,40.641-84.27
			c22.713-19.92,52.397-29.881,89.053-29.881c38.646,0,69.727,10.559,93.232,31.676c23.51,21.516,35.264,47.613,35.264,78.293
			C392.66,174.516,388.475,191.051,380.107,206.191z"/>
	</g>
</g>
<g>
</g>
<g>
</g>
<g>
</g>
<g>
</g>
<g>
</g>
<g>
</g>
<g>
</g>
<g>
</g>
<g>
</g>
<g>
</g>
<g>
</g>
<g>
</g>
<g>
</g>
<g>
</g>
<g>
</g>
</svg>
